HIERARCHY
ROOT Hips
{
	OFFSET 0.000000 0.000000 0.000000
	CHANNELS 6 Xposition Yposition Zposition Zrotation Yrotation Xrotation 
	JOINT LHipJoint
	{
		OFFSET 0.000000 0.000000 0.000000
		CHANNELS 3 Zrotation Yrotation Xrotation
		JOINT LeftUpLeg
		{
			OFFSET 1.363060 -1.794630 0.839290
			CHANNELS 3 Zrotation Yrotation Xrotation
			JOINT LeftLeg
			{
				OFFSET 2.448110 -6.726130 0.000000
				CHANNELS 3 Zrotation Yrotation Xrotation
				JOINT LeftFoot
				{
					OFFSET 2.562200 -7.039590 0.000000
					CHANNELS 3 Zrotation Yrotation Xrotation
					JOINT LeftToeBase
					{
						OFFSET 0.157640 -0.433110 2.322550
						CHANNELS 3 Zrotation Yrotation Xrotation
						End Site
						{
							OFFSET 0.000000 0.000000 0.000000
						}
					}
				}
			}
		}
	}
	JOINT RHipJoint
	{
		OFFSET 0.000000 0.000000 0.000000
		CHANNELS 3 Zrotation Yrotation Xrotation
		JOINT RightUpLeg
		{
			OFFSET -1.305520 -1.794630 0.839290
			CHANNELS 3 Zrotation Yrotation Xrotation
			JOINT RightLeg
			{
				OFFSET -2.542530 -6.985550 0.000000
				CHANNELS 3 Zrotation Yrotation Xrotation
				JOINT RightFoot
				{
					OFFSET -2.568260 -7.056230 0.000000
					CHANNELS 3 Zrotation Yrotation Xrotation
					JOINT RightToeBase
					{
						OFFSET -0.164730 -0.452590 2.363150
						CHANNELS 3 Zrotation Yrotation Xrotation
						End Site
						{
							OFFSET 0.000000 0.000000 0.000000
						}
					}
				}
			}
		}
	}
	JOINT LowerBack
	{
		OFFSET 0.000000 0.000000 0.000000
		CHANNELS 3 Zrotation Yrotation Xrotation
		JOINT Spine
		{
			OFFSET 0.028270 2.035590 -0.193380
			CHANNELS 3 Zrotation Yrotation Xrotation
			JOINT Spine1
			{
				OFFSET 0.056720 2.048850 -0.042750
				CHANNELS 3 Zrotation Yrotation Xrotation
				JOINT Neck
				{
					OFFSET 0.000000 0.000000 0.000000
					CHANNELS 3 Zrotation Yrotation Xrotation
					JOINT Neck1
					{
						OFFSET -0.054170 1.746240 0.172020
						CHANNELS 3 Zrotation Yrotation Xrotation
						JOINT Head
						{
							OFFSET 0.104070 1.761360 -0.123970
							CHANNELS 3 Zrotation Yrotation Xrotation
							End Site
							{
								OFFSET 0.000000 0.000000 0.000000
							}
						}
					}
				}
				JOINT LeftShoulder
				{
					OFFSET 0.000000 0.000000 0.000000
					CHANNELS 3 Zrotation Yrotation Xrotation
					JOINT LeftArm
					{
						OFFSET 3.362410 1.200890 -0.311210
						CHANNELS 3 Zrotation Yrotation Xrotation
						JOINT LeftForeArm
						{
							OFFSET 4.983000 -0.000000 -0.000000
							CHANNELS 3 Zrotation Yrotation Xrotation
							JOINT LeftHand
							{
								OFFSET 3.483560 -0.000000 -0.000000
								CHANNELS 3 Zrotation Yrotation Xrotation
								JOINT LeftFingerBase
								{
									OFFSET 0.000000 0.000000 0.000000
									CHANNELS 3 Zrotation Yrotation Xrotation
									JOINT LeftHandIndex1
									{
										OFFSET 0.715260 -0.000000 -0.000000
										CHANNELS 3 Zrotation Yrotation Xrotation
										End Site
										{
											OFFSET 0.000000 0.000000 0.000000
										}
									}
								}
								JOINT LThumb
								{
									OFFSET 0.000000 0.000000 0.000000
									CHANNELS 3 Zrotation Yrotation Xrotation
									End Site
									{
										OFFSET 0.000000 0.000000 0.000000
									}
								}
							}
						}
					}
				}
				JOINT RightShoulder
				{
					OFFSET 0.000000 0.000000 0.000000
					CHANNELS 3 Zrotation Yrotation Xrotation
					JOINT RightArm
					{
						OFFSET -3.136600 1.374050 -0.404650
						CHANNELS 3 Zrotation Yrotation Xrotation
						JOINT RightForeArm
						{
							OFFSET -5.241900 -0.000000 -0.000000
							CHANNELS 3 Zrotation Yrotation Xrotation
							JOINT RightHand
							{
								OFFSET -3.444170 -0.000000 -0.000000
								CHANNELS 3 Zrotation Yrotation Xrotation
								JOINT RightFingerBase
								{
									OFFSET 0.000000 0.000000 0.000000
									CHANNELS 3 Zrotation Yrotation Xrotation
									JOINT RightHandIndex1
									{
										OFFSET -0.622530 -0.000000 -0.000000
										CHANNELS 3 Zrotation Yrotation Xrotation
										End Site
										{
											OFFSET 0.000000 0.000000 0.000000
										}
									}
								}
								JOINT RThumb
								{
									OFFSET 0.000000 0.000000 0.000000
									CHANNELS 3 Zrotation Yrotation Xrotation
									End Site
									{
										OFFSET 0.000000 0.000000 0.000000
									}
								}
							}
						}
					}
				}
			}
		}
	}
}
MOTION
Frames: 8
Frame Time: 0.008333
13.474037 18.211057 -6.809472 1.221159 -10.159308 5.615580 -7.413907 0.699163 2.609779 -12.021005 -7.719960 -18.041780 0.473656 7.063530 21.213486 -1.150055 5.964505 -0.304277 0.186100 2.778400 7.662400 3.649557 -1.418799 2.165697 9.041586 15.543834 -6.349949 -1.560348 -7.544563 23.085912 0.379335 -3.759048 -6.608373 -0.029900 -1.116300 3.069000 -2.606530 0.541117 -2.187634 0.672719 0.634502 -0.298064 -1.370721 0.053892 0.005281 -10.885880 -8.510702 -11.315027 3.472287 -10.394116 14.487296 1.584800 -5.341200 8.313700 -3.117541 -2.607674 0.135380 -81.798377 -0.151964 23.896582 23.883442 -28.675082 -7.119533 -0.509496 -2.285312 -15.515836 25.904800 19.290556 10.535800 -7.125000 0.000000 0.000000 -1.767700 53.698600 -0.378200 0.744036 2.242714 0.015944 89.938504 -4.103578 45.876603 -51.209953 51.767891 -28.427156 1.140478 -0.093528 -10.443388 -39.769012 26.816065 -21.277800 7.125000 0.000000 0.000000 -6.274500 3.522300 -6.687400 
13.472759 18.206437 -6.827070 1.368032 -10.258021 5.483628 -7.421874 0.699293 2.623323 -12.173471 -7.570743 -17.987392 0.459473 7.036673 21.127938 -1.135799 5.916408 -0.235568 0.194400 2.839700 7.832800 3.649120 -1.413518 2.174381 8.906565 15.436367 -6.131439 -1.515152 -7.473427 22.822913 0.401613 -3.891232 -6.560722 -0.000100 -0.070000 0.192300 -2.626195 0.606010 -2.098452 0.741288 0.725611 -0.253013 -1.308008 0.098263 -0.023303 -11.070363 -8.469293 -11.345721 3.633818 -10.305812 14.260604 1.679000 -5.297500 8.251300 -3.134778 -2.625779 0.139777 -81.956040 -0.436479 24.153514 23.789006 -28.538405 -7.063490 -0.518041 -2.257224 -14.359065 25.472974 19.211477 10.289000 -7.125000 0.000000 0.000000 -2.240000 53.515100 -0.469200 0.740479 2.264147 0.020808 89.888754 -4.091363 45.408910 -51.866563 52.025367 -28.978164 1.138517 -0.097308 -9.852163 -39.696781 26.707703 -21.151100 7.125000 0.000000 0.000000 -6.261200 3.362300 -6.656600 
13.467942 18.209779 -6.853318 1.361825 -10.459731 5.454271 -7.418680 0.694635 2.630396 -12.139330 -7.359981 -18.083459 0.448966 7.025295 21.070339 -1.130761 5.905690 -0.147861 0.197400 2.860900 7.891800 3.653796 -1.412595 2.171884 8.939652 15.560089 -5.946561 -1.469808 -7.379774 22.536651 0.398613 -3.884977 -6.625311 -0.002900 0.346100 -0.950900 -2.509898 0.683635 -2.029484 0.821006 0.833124 -0.202893 -1.309928 0.152683 -0.021651 -11.050502 -8.432767 -11.520003 3.615878 -10.222250 13.989455 1.671700 -5.255300 8.177000 -3.140476 -2.651859 0.146691 -82.032630 -0.802124 24.414379 23.773908 -28.497847 -7.056534 -0.526466 -2.230613 -13.776375 25.314170 18.958890 10.091100 -7.125000 0.000000 0.000000 -2.355500 53.192400 -0.474900 0.733137 2.289447 0.026300 89.705307 -3.927326 45.288634 -52.473897 52.258065 -29.489358 1.140357 -0.095771 -9.595119 -39.779023 26.620187 -21.144800 7.125000 0.000000 0.000000 -6.332800 3.282500 -6.725300 
13.461847 18.223149 -6.877502 1.154388 -10.651132 5.539606 -7.409955 0.695152 2.634489 -11.857863 -7.233723 -18.241127 0.435501 7.014049 20.997250 -1.141101 5.955196 -0.035574 0.237600 3.137100 8.660600 3.666649 -1.430069 2.155957 9.128683 16.298740 -5.653703 -1.440852 -7.299042 22.339963 0.304702 -3.386186 -6.982459 -0.064800 -1.642700 4.519200 -2.214570 0.604204 -2.090358 0.882064 0.726595 -0.179921 -1.419092 0.101350 0.062349 -10.732920 -8.216964 -11.506852 3.626973 -9.971487 13.562425 1.655300 -5.116500 7.986000 -3.126956 -2.666840 0.156406 -81.859500 -1.018141 24.472733 23.768820 -28.494263 -7.051233 -0.570153 -2.181475 -13.437385 25.806356 18.342673 10.007600 -7.125000 0.000000 0.000000 -1.662700 52.570200 -0.309800 0.721451 2.301388 0.029524 89.653156 -3.888851 45.689446 -53.126320 52.498001 -30.044969 1.147477 -0.107807 -9.296793 -40.015349 26.962014 -21.539500 7.125000 0.000000 0.000000 -6.389400 3.763700 -6.836500 
13.457128 18.232783 -6.897754 0.815830 -10.747687 5.722413 -7.397349 0.694081 2.627229 -11.422894 -7.200989 -18.414074 0.410003 6.976402 20.842370 -1.162620 6.046319 0.148640 0.285700 3.437500 9.499200 3.677316 -1.440920 2.142687 9.488243 16.622355 -5.601102 -1.429199 -7.240285 22.228929 0.256187 -3.097095 -7.067722 -0.157400 -2.556500 7.046400 -1.749824 0.503267 -2.163114 0.964462 0.583408 -0.310017 -1.601494 0.038535 -0.002394 -10.486916 -7.970428 -11.137674 3.708370 -9.717583 13.079139 1.688500 -4.981200 7.718900 -3.113538 -2.659135 0.161547 -81.665814 -0.980384 24.629786 23.691799 -28.418006 -7.010979 -0.588134 -2.128859 -13.024095 25.835951 17.694733 9.695800 -7.125000 0.000000 0.000000 -1.483200 51.821800 -0.249200 0.717236 2.298955 0.030770 89.727859 -3.918724 46.090977 -53.452306 52.615929 -30.335239 1.146135 -0.109596 -8.962020 -39.889080 26.880659 -21.395700 7.125000 0.000000 0.000000 -6.338200 3.619400 -6.766200 
13.457718 18.235733 -6.920856 0.602383 -10.782363 5.949864 -7.390909 0.681650 2.601035 -11.140548 -7.242228 -18.617770 0.388652 6.932691 20.701942 -1.182164 6.119656 0.246146 0.337400 3.733000 10.326600 3.680463 -1.435581 2.145841 9.701353 16.291332 -5.874305 -1.410692 -7.172596 22.067713 0.270455 -3.088689 -6.720640 -0.086800 -1.900200 5.229800 -1.337746 0.431995 -2.250141 1.052519 0.477299 -0.511517 -1.751528 -0.005049 -0.138817 -10.306313 -7.805816 -10.831370 3.619615 -9.544271 12.738176 1.657900 -4.900700 7.515300 -3.097657 -2.647769 0.159098 -81.686713 -0.834352 24.581263 23.829555 -28.589053 -7.103414 -0.551971 -2.135883 -12.763333 25.337301 17.912417 9.582600 -7.125000 0.000000 0.000000 -2.089600 51.982000 -0.359300 0.719428 2.290230 0.031531 89.681132 -3.689420 46.504749 -53.171562 52.515759 -30.109514 1.140041 -0.097682 -8.806285 -39.753022 26.339503 -20.931300 7.125000 0.000000 0.000000 -6.389200 2.934300 -6.749200 
13.460274 18.238977 -6.936488 0.999751 -10.742040 5.961646 -7.415813 0.662605 2.587424 -11.570003 -7.199278 -18.678316 0.380995 6.892259 20.638025 -1.142496 5.961274 0.261766 0.366500 3.888900 10.764400 3.675435 -1.425730 2.167144 9.204618 15.967231 -6.007591 -1.374704 -7.121791 21.852013 0.270219 -3.026705 -6.408730 -0.061600 -1.601100 4.404600 -1.478914 0.379821 -2.403222 0.975318 0.403312 -0.552103 -1.746616 -0.045222 -0.091656 -10.268980 -7.727359 -10.663672 3.684533 -9.460138 12.414362 1.688500 -4.855400 7.364900 -3.090504 -2.658952 0.159703 -81.815240 -0.894567 24.511381 24.003348 -28.783413 -7.213505 -0.600867 -2.042304 -12.762020 26.132338 16.212212 9.076800 -7.125000 0.000000 0.000000 -0.882000 50.175700 -0.112500 0.722407 2.291136 0.035149 89.480834 -3.233227 46.879148 -52.758460 52.366751 -29.763840 1.136526 -0.085063 -8.787124 -39.815104 25.830346 -20.620600 7.125000 0.000000 0.000000 -6.545200 2.355600 -6.852800 
13.452508 18.237502 -6.956444 1.355549 -10.838748 5.953843 -7.435214 0.648076 2.582611 -11.924624 -7.056061 -18.769336 0.372072 6.857515 20.564123 -1.138180 5.943250 0.361276 0.337800 3.734800 10.331900 3.676436 -1.423897 2.171704 8.793773 16.072813 -6.018615 -1.338640 -7.063999 21.636626 0.281442 -3.101367 -6.408326 -0.055300 -1.516900 4.172400 -1.667494 0.427746 -2.539383 0.850093 0.468269 -0.495957 -1.748856 -0.019939 0.041699 -10.137794 -7.694896 -10.823197 3.877323 -9.427336 12.203506 1.733800 -4.813300 7.320100 -3.087896 -2.682719 0.168654 -81.728076 -1.195160 24.896671 24.021470 -28.793299 -7.235558 -0.687846 -1.887564 -13.226165 27.447516 13.330298 8.058700 -7.125000 0.000000 0.000000 0.935300 47.025500 0.046800 0.722410 2.314031 0.038876 89.427507 -2.658670 47.028920 -52.376263 52.227040 -29.436463 1.136397 -0.086176 -8.877282 -39.885602 25.852466 -20.684100 7.125000 0.000000 0.000000 -6.579400 2.409500 -6.895100 
